<svg width="20" height="20" viewBox="0 0 20 20" fill="none" xmlns="http://www.w3.org/2000/svg">
<g clip-path="url(#clip0_499_127)">
<rect width="20" height="20" rx="4" fill="white"/>
<mask id="mask0_499_127" style="mask-type:luminance" maskUnits="userSpaceOnUse" x="-13" y="7" width="32" height="7">
<path d="M18.7 7V13.529L-12.3 10.2645L18.7 7Z" fill="white"/>
</mask>
<g mask="url(#mask0_499_127)">
<path d="M-12.7452 24.683C-20.7492 24.683 -27.2592 18.2166 -27.2592 10.2645C-27.2592 2.31238 -20.7459 -4.15405 -12.7452 -4.15405C-4.74458 -4.15405 1.76872 2.31238 1.76872 10.2645C1.76872 18.2166 -4.74128 24.683 -12.7452 24.683ZM-12.7452 -3.67311C-20.482 -3.67311 -26.7777 2.57921 -26.7777 10.2645C-26.7777 17.9497 -20.482 24.2021 -12.7452 24.2021C-5.00841 24.2021 1.28723 17.9497 1.28723 10.2645C1.28723 2.57921 -5.00841 -3.67311 -12.7452 -3.67311Z" fill="#006B59"/>
<path d="M-12.8243 28.3658C-17.6689 28.3658 -22.2266 26.4915 -25.6531 23.0886C-29.0796 19.6857 -30.9659 15.1596 -30.9659 10.3435C-30.9659 5.52745 -29.0796 1.00457 -25.6531 -2.40159C-22.2266 -5.80116 -17.6722 -7.67554 -12.8243 -7.67554C-7.97648 -7.67554 -3.42541 -5.80116 0.00107599 -2.3983C3.42757 1.00457 5.31395 5.53074 5.31395 10.3468C5.31395 15.1629 3.42757 19.6857 0.00107599 23.0919C-3.42541 26.4948 -7.97977 28.3691 -12.8276 28.3691L-12.8243 28.3658ZM-12.8243 -7.15506C-17.5304 -7.15506 -21.9562 -5.33339 -25.2837 -2.02935C-28.6113 1.27469 -30.4449 5.67239 -30.4449 10.3435C-30.4449 15.0146 -28.6113 19.4123 -25.2837 22.7164C-21.9562 26.0237 -17.5304 27.8421 -12.8243 27.8421C-8.11828 27.8421 -3.69254 26.0204 -0.364986 22.7164C2.96257 19.4123 4.79619 15.0146 4.79619 10.3435C4.79619 5.67239 2.96257 1.27469 -0.364986 -2.02935C-3.69254 -5.33669 -8.11828 -7.15506 -12.8243 -7.15506Z" fill="#006B59"/>
<path d="M-12.8244 32.3715C-18.7474 32.3715 -24.3142 30.0788 -28.5025 25.9182C-32.6908 21.7577 -34.996 16.2268 -34.996 10.3435C-34.996 4.4601 -32.6908 -1.07079 -28.5025 -5.23131C-24.3175 -9.39183 -18.7474 -11.6813 -12.8244 -11.6813C-6.9014 -11.6813 -1.33459 -9.39183 2.85371 -5.23131C7.04201 -1.07079 9.34722 4.4601 9.34722 10.3435C9.34722 16.2268 7.04201 21.7577 2.85371 25.9182C-1.33459 30.0788 -6.9014 32.3715 -12.8244 32.3715ZM-12.8244 -11.1213C-18.599 -11.1213 -24.024 -8.88783 -28.1067 -4.83272C-32.1862 -0.777612 -34.4353 4.61163 -34.4353 10.3468C-34.4353 16.0819 -32.1862 21.4711 -28.1067 25.5262C-24.024 29.5813 -18.599 31.8148 -12.8244 31.8148C-7.0498 31.8148 -1.6248 29.5813 2.45796 25.5262C6.53743 21.4711 8.78658 16.0819 8.78658 10.3468C8.78658 4.61163 6.53743 -0.777612 2.45796 -4.83272C-1.6248 -8.88783 -7.0531 -11.1213 -12.8244 -11.1213Z" fill="#006B59"/>
<path d="M-12.7453 36.6968C-19.8522 36.6968 -26.5337 33.9462 -31.5597 28.9555C-36.5856 23.9616 -39.3525 17.3239 -39.3525 10.2645C-39.3525 3.20509 -36.5856 -3.43263 -31.5597 -8.42658C-26.5337 -13.4205 -19.8522 -16.1678 -12.7453 -16.1678C-5.63839 -16.1678 1.04309 -13.4172 6.06905 -8.42658C11.095 -3.43263 13.8619 3.20509 13.8619 10.2645C13.8619 17.3239 11.095 23.9616 6.06905 28.9555C1.04309 33.9495 -5.63839 36.6968 -12.7453 36.6968ZM-12.7453 -15.5683C-19.6939 -15.5683 -26.2237 -12.8803 -31.1342 -8.00163C-36.0448 -3.12298 -38.749 3.36321 -38.749 10.2645C-38.749 17.1657 -36.0448 23.6486 -31.1342 28.5306C-26.2237 33.4092 -19.6906 36.0973 -12.7453 36.0973C-5.79999 36.0973 0.733095 33.4092 5.64363 28.5306C10.5542 23.6519 13.2584 17.1657 13.2584 10.2645C13.2584 3.36321 10.5575 -3.11969 5.64363 -7.99834C0.733095 -12.8803 -5.79669 -15.5683 -12.7453 -15.5683Z" fill="#006B59"/>
<path d="M-12.7452 41.503C-16.9896 41.503 -21.1086 40.6762 -24.9836 39.0488C-28.7267 37.4742 -32.0905 35.2243 -34.9795 32.3551C-37.8684 29.4859 -40.134 26.1456 -41.717 22.4265C-43.3561 18.5757 -44.1871 14.4843 -44.1871 10.2678C-44.1871 6.05127 -43.3561 1.95993 -41.717 -1.89094C-40.134 -5.61005 -37.8651 -8.95032 -34.9795 -11.8195C-32.0905 -14.6887 -28.73 -16.9419 -24.9836 -18.5133C-21.1053 -20.1439 -16.9896 -20.9674 -12.7452 -20.9674C-8.50086 -20.9674 -4.38182 -20.1406 -0.506821 -18.5133C3.23626 -16.9387 6.6001 -14.6887 9.48903 -11.8195C12.378 -8.95032 14.6436 -5.61005 16.2266 -1.89094C17.8656 1.95993 18.6967 6.05127 18.6967 10.2678C18.6967 14.4843 17.8656 18.5757 16.2266 22.4265C14.6436 26.1456 12.3747 29.4859 9.48903 32.3551C6.6001 35.2243 3.23956 37.4775 -0.506821 39.0488C-4.38512 40.6795 -8.50086 41.503 -12.7452 41.503ZM-12.7452 -20.3349C-16.9038 -20.3349 -20.9371 -19.5246 -24.7363 -17.9302C-28.4035 -16.3885 -31.6981 -14.1814 -34.5277 -11.3715C-37.3572 -8.56161 -39.5767 -5.29051 -41.13 -1.64717C-42.7361 2.12464 -43.5506 6.13033 -43.5506 10.2612C-43.5506 14.3921 -42.7361 18.3978 -41.13 22.1696C-39.58 25.8129 -37.3572 29.084 -34.5277 31.8939C-31.6981 34.7039 -28.4035 36.9109 -24.7363 38.4526C-20.9371 40.047 -16.9038 40.8573 -12.7452 40.8573C-8.5866 40.8573 -4.55331 40.047 -0.754161 38.4526C2.91307 36.9109 6.20765 34.7039 9.03722 31.8939C11.8668 29.084 14.0863 25.8129 15.6396 22.1696C17.2456 18.3978 18.0602 14.3921 18.0602 10.2612C18.0602 6.13033 17.2456 2.12464 15.6396 -1.64717C14.0896 -5.29051 11.8668 -8.56161 9.03722 -11.3715C6.20765 -14.1814 2.91307 -16.3885 -0.754161 -17.9302C-4.55331 -19.5246 -8.5866 -20.3349 -12.7452 -20.3349Z" fill="#006B59"/>
</g>
</g>
<defs>
<clipPath id="clip0_499_127">
<rect width="20" height="20" rx="4" fill="white"/>
</clipPath>
</defs>
</svg>
